# xmcd CD database file
#
# Track frame offsets:
#	150
#	12315
#	28530
#	41312
#	52987
#	68052
#	81040
#	91987
#	102065
#	116705
#	127347
#	146820
#
# Disc length: 2121 seconds
#
# Revision: 8
# Processed by: cddbd v1.5.2PL0 Copyright (c) Steve Scherf et al.
# Submitted via: CDex 1.70beta2
#
DISCID=9b08470c
DTITLE=Antonio Carlos Jobim - The Composer Of "Desafinado", Plays
DYEAR=1963
DGENRE=Jazz
TTITLE0=The Girl From Ipanema
TTITLE1=Amor em Paz (Once I Loved)
TTITLE2=Agua de Beber
TTITLE3=Vivo Sonhando (Dreamer)
TTITLE4=O Morro Não Tem Vez (aka 'Favela')
TTITLE5=Insensatez (How Insensitive)
TTITLE6=Corcovado (Quiet Nights)
TTITLE7=Samba de Uma Nota Só (One Note Samba)
TTITLE8=Meditation
TTITLE9=Só Danço Samba (Jazz Samba)
TTITLE10=Chega de Saudade
TTITLE11=Desafinado
EXTD=Arranged and conducted by Claus Ogerman.\n YEAR: 1963
EXTT0=
EXTT1=
EXTT2=
EXTT3=
EXTT4=
EXTT5=
EXTT6=
EXTT7=
EXTT8=
EXTT9=
EXTT10=
EXTT11=
PLAYORDER=
